<svg xmlns="http://www.w3.org/2000/svg" viewBox="0 0 800 480">
  <defs>
    <linearGradient id="textGrad" x1="0%" y1="0%" x2="0%" y2="100%">
      <stop offset="0%" stop-color="#2c5f6f"/>
      <stop offset="100%" stop-color="#1e4a57"/>
    </linearGradient>
    <radialGradient id="halo" cx="50%" cy="48%">
      <stop offset="0%" stop-color="#5aa5b8" stop-opacity="0.06"/>
      <stop offset="50%" stop-color="#5aa5b8" stop-opacity="0.03"/>
      <stop offset="100%" stop-color="#5aa5b8" stop-opacity="0"/>
    </radialGradient>
    <linearGradient id="tsGrad" x1="0%" y1="0%" x2="100%" y2="0%">
      <stop offset="0%" stop-color="#89b896" stop-opacity="0.7"/>
      <stop offset="100%" stop-color="#89b896" stop-opacity="0.15"/>
    </linearGradient>
    <linearGradient id="tsGrad2" x1="0%" y1="0%" x2="100%" y2="0%">
      <stop offset="0%" stop-color="#f4c96b" stop-opacity="0.7"/>
      <stop offset="100%" stop-color="#f4c96b" stop-opacity="0.15"/>
    </linearGradient>
  </defs>
  
  <ellipse cx="400" cy="205" rx="210" ry="115" fill="url(#halo)"/>
  
  <!-- Network motif (left) -->
  <g opacity="0.5">
    <circle cx="118" cy="170" r="5" fill="#4a90a4"/>
    <circle cx="155" cy="170" r="5" fill="#4a90a4"/>
    <circle cx="192" cy="170" r="5" fill="#4a90a4"/>
    <line x1="118" y1="175" x2="136" y2="212" stroke="#4a90a4" stroke-width="1.1" opacity="0.45"/>
    <line x1="118" y1="175" x2="174" y2="212" stroke="#4a90a4" stroke-width="0.7" opacity="0.2"/>
    <line x1="155" y1="175" x2="136" y2="212" stroke="#4a90a4" stroke-width="1.1" opacity="0.45"/>
    <line x1="155" y1="175" x2="174" y2="212" stroke="#4a90a4" stroke-width="1.1" opacity="0.45"/>
    <line x1="192" y1="175" x2="136" y2="212" stroke="#4a90a4" stroke-width="0.7" opacity="0.2"/>
    <line x1="192" y1="175" x2="174" y2="212" stroke="#4a90a4" stroke-width="1.1" opacity="0.45"/>
    <circle cx="136" cy="215" r="4.5" fill="#5aa5b8"/>
    <circle cx="174" cy="215" r="4.5" fill="#5aa5b8"/>
    <line x1="136" y1="219" x2="155" y2="253" stroke="#7ba8bb" stroke-width="1.1" opacity="0.45"/>
    <line x1="174" y1="219" x2="155" y2="253" stroke="#7ba8bb" stroke-width="1.1" opacity="0.45"/>
    <circle cx="155" cy="256" r="5.5" fill="#4a90a4"/>
  </g>
  
  <!-- Data motif (right) -->
  <g opacity="0.5">
    <path d="M 612,182 Q 628,170 644,186 T 674,176 Q 690,183 706,178" stroke="url(#tsGrad)" stroke-width="1.8" fill="none"/>
    <circle cx="612" cy="182" r="3.5" fill="#89b896"/>
    <circle cx="644" cy="186" r="4.5" fill="#89b896"/>
    <circle cx="674" cy="176" r="3.5" fill="#a8d4b0"/>
    <circle cx="706" cy="178" r="2.8" fill="#c4e5ca"/>
    <circle cx="630" cy="218" r="2.8" fill="#7ba8bb" opacity="0.5"/>
    <circle cx="658" cy="230" r="3.5" fill="#6b9fb3" opacity="0.55"/>
    <circle cx="684" cy="215" r="2.8" fill="#4a90a4" opacity="0.4"/>
    <path d="M 618,258 Q 636,248 652,262 T 682,252 Q 698,258 712,250" stroke="url(#tsGrad2)" stroke-width="1.8" fill="none"/>
    <circle cx="618" cy="258" r="3" fill="#f4c96b"/>
    <circle cx="652" cy="262" r="4.5" fill="#f4c96b"/>
    <circle cx="682" cy="252" r="3.5" fill="#f9d88e"/>
    <circle cx="712" cy="250" r="2.8" fill="#fce7b5"/>
  </g>
  
  <!-- JAB (outlined) -->
    <g fill="url(#textGrad)">
      <path transform="translate(287.40,228.00) scale(0.052734,-0.052734)" d="M567 -20Q335 -20 201.5 101.5Q68 223 68 448V535H373V443Q373 336 425.5 281.0Q478 226 567 226Q656 226 708.0 281.0Q760 336 760 444V1490H1062V449Q1062 223 930.0 101.5Q798 -20 567 -20Z"/>
      <path transform="translate(355.52,228.00) scale(0.052734,-0.052734)" d="M49 0 558 1490H958L1480 0H1141L902 719Q859 858 814.5 1023.5Q770 1189 721 1385H788Q740 1188 698.5 1021.5Q657 855 616 719L386 0ZM367 346V585H1162V346Z"/>
      <path transform="translate(441.15,228.00) scale(0.052734,-0.052734)" d="M135 0V1490H726Q890 1490 999.5 1440.5Q1109 1391 1163.5 1305.0Q1218 1219 1218 1107Q1218 1019 1183.0 953.5Q1148 888 1087.5 846.5Q1027 805 950 787V772Q1034 769 1108.5 724.5Q1183 680 1229.5 600.5Q1276 521 1276 411Q1276 293 1218.0 200.0Q1160 107 1046.5 53.5Q933 0 764 0ZM440 251H704Q838 251 900.0 303.0Q962 355 962 440Q962 503 931.5 551.5Q901 600 845.0 627.5Q789 655 712 655H440ZM440 864H681Q746 864 798.0 887.5Q850 911 879.5 954.5Q909 998 909 1058Q909 1139 851.5 1190.0Q794 1241 687 1241H440Z"/>
    </g>
  
  <!-- LAB (outlined) -->
    <g fill="#4a90a4">
      <path transform="translate(340.82,290.00) scale(0.024414,-0.024414)" d="M197 0V1490H340V127H1048V0Z"/>
      <path transform="translate(381.04,290.00) scale(0.024414,-0.024414)" d="M57 0 603 1490H771L1322 0H1172L818 974Q788 1055 752.5 1163.5Q717 1272 671 1425H701Q655 1271 619.0 1161.0Q583 1051 556 974L208 0ZM311 443V569H1068V443Z"/>
      <path transform="translate(426.71,290.00) scale(0.024414,-0.024414)" d="M197 0V1490H704Q850 1490 947.0 1439.0Q1044 1388 1093.0 1300.0Q1142 1212 1142 1101Q1142 1007 1110.5 941.0Q1079 875 1025.0 834.0Q971 793 904 775V763Q975 758 1043.0 712.5Q1111 667 1155.5 585.5Q1200 504 1200 392Q1200 279 1149.5 190.5Q1099 102 995.5 51.0Q892 0 732 0ZM339 127H729Q899 127 981.0 202.5Q1063 278 1063 393Q1063 478 1022.0 546.5Q981 615 907.5 655.0Q834 695 735 695H339ZM339 817H714Q801 817 867.0 853.5Q933 890 969.0 953.5Q1005 1017 1005 1098Q1005 1215 928.5 1289.0Q852 1363 701 1363H339Z"/>
    </g>
  
  <!-- Divider -->
  <line x1="315" y1="308" x2="485" y2="308" stroke="#7ba8bb" stroke-width="0.75" opacity="0.35"/>
  
  <!-- Tagline (outlined) -->
    <g fill="#7ba8bb">
      <path transform="translate(220.39,336.00) scale(0.006348,-0.006348)" d="M180 0V1490H708Q864 1490 965.5 1436.5Q1067 1383 1116.5 1293.5Q1166 1204 1166 1095Q1166 999 1132.0 936.5Q1098 874 1042.5 837.0Q987 800 922 782V768Q992 764 1061.5 720.0Q1131 676 1177.5 595.0Q1224 514 1224 397Q1224 285 1172.5 195.0Q1121 105 1011.0 52.5Q901 0 725 0ZM370 168H720Q894 168 967.5 235.0Q1041 302 1041 399Q1041 474 1003.0 537.0Q965 600 895.5 638.0Q826 676 730 676H370ZM370 836H698Q778 836 843.0 867.5Q908 899 946.0 956.5Q984 1014 984 1091Q984 1188 916.5 1255.0Q849 1322 704 1322H370Z"/>
      <path transform="translate(233.40,336.00) scale(0.006348,-0.006348)" d="M180 0V1490H1088V1322H370V836H1039V668H370V168H1097V0Z"/>
      <path transform="translate(245.71,336.00) scale(0.006348,-0.006348)" d="M180 0V1490H370V846H1152V1490H1342V0H1152V678H370V0Z"/>
      <path transform="translate(259.87,336.00) scale(0.006348,-0.006348)" d="M52 0 593 1490H813L1361 0H1161L845 884Q816 966 777.5 1088.5Q739 1211 684 1401H720Q666 1209 626.5 1084.5Q587 960 561 884L254 0ZM324 416V582H1089V416Z"/>
      <path transform="translate(273.34,336.00) scale(0.006348,-0.006348)" d="M600 0 52 1490H252L567 606Q594 530 634.5 403.0Q675 276 729 90H692Q746 281 786.0 405.5Q826 530 852 606L1159 1490H1361L819 0Z"/>
      <path transform="translate(286.81,336.00) scale(0.006348,-0.006348)" d="M370 1490V0H180V1490Z"/>
      <path transform="translate(294.80,336.00) scale(0.006348,-0.006348)" d="M784 -20Q593 -20 443.5 72.5Q294 165 208.0 336.5Q122 508 122 744Q122 981 208.0 1152.5Q294 1324 443.5 1417.0Q593 1510 784 1510Q975 1510 1124.0 1417.0Q1273 1324 1358.5 1152.5Q1444 981 1444 744Q1444 508 1358.5 336.5Q1273 165 1124.0 72.5Q975 -20 784 -20ZM784 156Q917 156 1024.5 223.5Q1132 291 1195.5 422.5Q1259 554 1259 744Q1259 936 1195.5 1067.5Q1132 1199 1024.5 1266.5Q917 1334 784 1334Q650 1334 542.0 1266.0Q434 1198 370.5 1066.5Q307 935 307 744Q307 554 370.5 423.0Q434 292 542.0 224.0Q650 156 784 156Z"/>
      <path transform="translate(309.24,336.00) scale(0.006348,-0.006348)" d="M180 0V1490H690Q864 1490 976.5 1430.5Q1089 1371 1143.5 1267.0Q1198 1163 1198 1030Q1198 897 1143.5 795.0Q1089 693 977.0 635.5Q865 578 691 578H286V747H682Q800 747 871.5 781.5Q943 816 976.0 879.5Q1009 943 1009 1030Q1009 1119 976.0 1184.5Q943 1250 871.0 1286.5Q799 1323 680 1323H370V0ZM1036 0 676 671H890L1256 0Z"/>
      <path transform="translate(322.11,336.00) scale(0.006348,-0.006348)" d="M52 0 593 1490H813L1361 0H1161L845 884Q816 966 777.5 1088.5Q739 1211 684 1401H720Q666 1209 626.5 1084.5Q587 960 561 884L254 0ZM324 416V582H1089V416Z"/>
      <path transform="translate(335.58,336.00) scale(0.006348,-0.006348)" d="M180 0V1490H370V168H1060V0Z"/>
      <path transform="translate(355.59,336.00) scale(0.006348,-0.006348)" d="M580 -20Q433 -20 326.0 34.5Q219 89 161.5 181.5Q104 274 104 389Q104 487 144.0 558.0Q184 629 254.5 690.0Q325 751 414 817L635 980Q662 1000 694.0 1028.0Q726 1056 748.5 1095.0Q771 1134 771 1186Q771 1257 723.5 1303.0Q676 1349 595 1349Q539 1349 496.0 1326.0Q453 1303 429.5 1262.5Q406 1222 406 1168Q406 1112 431.5 1061.0Q457 1010 501.0 955.0Q545 900 601 832L1287 0H1070L505 678Q425 775 361.5 851.5Q298 928 261.5 1003.0Q225 1078 225 1167Q225 1266 270.0 1342.0Q315 1418 397.5 1461.0Q480 1504 590 1504Q702 1504 783.0 1460.5Q864 1417 908.0 1344.5Q952 1272 952 1183Q952 1115 926.5 1057.0Q901 999 856.5 950.0Q812 901 754 858L456 637Q364 569 326.5 510.5Q289 452 289 383Q289 310 324.0 254.5Q359 199 422.0 168.0Q485 137 567 137Q656 137 738.0 173.5Q820 210 885.0 278.0Q950 346 988.0 442.0Q1026 538 1026 658H1199Q1199 510 1165.0 415.0Q1131 320 1087.5 265.0Q1044 210 1015 182L979 137Q906 58 796.5 19.0Q687 -20 580 -20Z"/>
      <path transform="translate(376.62,336.00) scale(0.006348,-0.006348)" d="M783 -20Q592 -20 442.5 72.5Q293 165 207.5 336.5Q122 508 122 744Q122 981 207.5 1152.5Q293 1324 442.5 1417.0Q592 1510 783 1510Q896 1510 996.5 1477.0Q1097 1444 1177.0 1380.5Q1257 1317 1310.5 1226.5Q1364 1136 1384 1021H1194Q1178 1098 1139.5 1156.0Q1101 1214 1045.5 1254.0Q990 1294 923.0 1314.0Q856 1334 783 1334Q649 1334 541.0 1266.0Q433 1198 370.0 1066.5Q307 935 307 744Q307 554 370.5 422.5Q434 291 542.0 223.5Q650 156 783 156Q856 156 923.0 176.5Q990 197 1045.5 236.5Q1101 276 1139.5 334.5Q1178 393 1194 469H1384Q1365 355 1311.5 265.0Q1258 175 1178.0 111.0Q1098 47 997.5 13.5Q897 -20 783 -20Z"/>
      <path transform="translate(390.61,336.00) scale(0.006348,-0.006348)" d="M784 -20Q593 -20 443.5 72.5Q294 165 208.0 336.5Q122 508 122 744Q122 981 208.0 1152.5Q294 1324 443.5 1417.0Q593 1510 784 1510Q975 1510 1124.0 1417.0Q1273 1324 1358.5 1152.5Q1444 981 1444 744Q1444 508 1358.5 336.5Q1273 165 1124.0 72.5Q975 -20 784 -20ZM784 156Q917 156 1024.5 223.5Q1132 291 1195.5 422.5Q1259 554 1259 744Q1259 936 1195.5 1067.5Q1132 1199 1024.5 1266.5Q917 1334 784 1334Q650 1334 542.0 1266.0Q434 1198 370.5 1066.5Q307 935 307 744Q307 554 370.5 423.0Q434 292 542.0 224.0Q650 156 784 156Z"/>
      <path transform="translate(405.05,336.00) scale(0.006348,-0.006348)" d="M789 -20Q590 -20 440.0 73.0Q290 166 206.0 337.5Q122 509 122 744Q122 981 206.0 1152.5Q290 1324 438.0 1417.0Q586 1510 777 1510Q895 1510 997.5 1475.0Q1100 1440 1181.0 1375.0Q1262 1310 1315.5 1220.5Q1369 1131 1389 1023H1193Q1170 1095 1132.0 1152.0Q1094 1209 1041.5 1250.0Q989 1291 923.0 1312.5Q857 1334 778 1334Q647 1334 540.0 1266.5Q433 1199 370.0 1067.5Q307 936 307 744Q307 554 370.5 423.0Q434 292 543.0 224.0Q652 156 789 156Q915 156 1011.0 209.5Q1107 263 1160.5 361.5Q1214 460 1214 594L1271 583H828V749H1400V586Q1400 401 1321.0 265.0Q1242 129 1104.5 54.5Q967 -20 789 -20Z"/>
      <path transform="translate(419.25,336.00) scale(0.006348,-0.006348)" d="M180 0V1490H404L1010 537Q1034 500 1068.0 442.0Q1102 384 1141.5 311.0Q1181 238 1219 155H1192Q1183 241 1179.0 319.5Q1175 398 1174.0 464.0Q1173 530 1173 576V1490H1363V0H1137L597 848Q560 907 522.5 969.5Q485 1032 437.0 1117.5Q389 1203 318 1329H353Q358 1218 362.0 1124.0Q366 1030 368.5 960.0Q371 890 371 850V0Z"/>
      <path transform="translate(433.55,336.00) scale(0.006348,-0.006348)" d="M370 1490V0H180V1490Z"/>
      <path transform="translate(441.54,336.00) scale(0.006348,-0.006348)" d="M98 1322V1490H1224V1322H757V0H567V1322Z"/>
      <path transform="translate(454.43,336.00) scale(0.006348,-0.006348)" d="M370 1490V0H180V1490Z"/>
      <path transform="translate(462.42,336.00) scale(0.006348,-0.006348)" d="M600 0 52 1490H252L567 606Q594 530 634.5 403.0Q675 276 729 90H692Q746 281 786.0 405.5Q826 530 852 606L1159 1490H1361L819 0Z"/>
      <path transform="translate(475.89,336.00) scale(0.006348,-0.006348)" d="M180 0V1490H1088V1322H370V836H1039V668H370V168H1097V0Z"/>
      <path transform="translate(496.36,336.00) scale(0.006348,-0.006348)" d="M657 -26Q496 -26 377.5 26.0Q259 78 192.0 171.5Q125 265 116 390H311Q319 306 368.0 251.5Q417 197 493.5 170.5Q570 144 657 144Q758 144 838.5 177.0Q919 210 966.0 270.0Q1013 330 1013 409Q1013 481 972.5 526.0Q932 571 865.0 600.0Q798 629 718 651L538 702Q358 753 258.0 848.0Q158 943 158 1091Q158 1217 226.0 1311.5Q294 1406 410.0 1458.0Q526 1510 670 1510Q817 1510 930.0 1458.0Q1043 1406 1108.5 1316.5Q1174 1227 1178 1114H992Q979 1223 888.0 1282.5Q797 1342 664 1342Q568 1342 495.5 1310.5Q423 1279 383.0 1224.5Q343 1170 343 1100Q343 1022 391.5 974.5Q440 927 506.5 900.5Q573 874 627 859L776 818Q836 802 908.5 774.0Q981 746 1047.0 699.5Q1113 653 1155.5 581.5Q1198 510 1198 406Q1198 284 1134.5 186.0Q1071 88 950.0 31.0Q829 -26 657 -26Z"/>
      <path transform="translate(509.20,336.00) scale(0.006348,-0.006348)" d="M783 -20Q592 -20 442.5 72.5Q293 165 207.5 336.5Q122 508 122 744Q122 981 207.5 1152.5Q293 1324 442.5 1417.0Q592 1510 783 1510Q896 1510 996.5 1477.0Q1097 1444 1177.0 1380.5Q1257 1317 1310.5 1226.5Q1364 1136 1384 1021H1194Q1178 1098 1139.5 1156.0Q1101 1214 1045.5 1254.0Q990 1294 923.0 1314.0Q856 1334 783 1334Q649 1334 541.0 1266.0Q433 1198 370.0 1066.5Q307 935 307 744Q307 554 370.5 422.5Q434 291 542.0 223.5Q650 156 783 156Q856 156 923.0 176.5Q990 197 1045.5 236.5Q1101 276 1139.5 334.5Q1178 393 1194 469H1384Q1365 355 1311.5 265.0Q1258 175 1178.0 111.0Q1098 47 997.5 13.5Q897 -20 783 -20Z"/>
      <path transform="translate(523.20,336.00) scale(0.006348,-0.006348)" d="M370 1490V0H180V1490Z"/>
      <path transform="translate(531.19,336.00) scale(0.006348,-0.006348)" d="M180 0V1490H1088V1322H370V836H1039V668H370V168H1097V0Z"/>
      <path transform="translate(543.50,336.00) scale(0.006348,-0.006348)" d="M180 0V1490H404L1010 537Q1034 500 1068.0 442.0Q1102 384 1141.5 311.0Q1181 238 1219 155H1192Q1183 241 1179.0 319.5Q1175 398 1174.0 464.0Q1173 530 1173 576V1490H1363V0H1137L597 848Q560 907 522.5 969.5Q485 1032 437.0 1117.5Q389 1203 318 1329H353Q358 1218 362.0 1124.0Q366 1030 368.5 960.0Q371 890 371 850V0Z"/>
      <path transform="translate(557.80,336.00) scale(0.006348,-0.006348)" d="M783 -20Q592 -20 442.5 72.5Q293 165 207.5 336.5Q122 508 122 744Q122 981 207.5 1152.5Q293 1324 442.5 1417.0Q592 1510 783 1510Q896 1510 996.5 1477.0Q1097 1444 1177.0 1380.5Q1257 1317 1310.5 1226.5Q1364 1136 1384 1021H1194Q1178 1098 1139.5 1156.0Q1101 1214 1045.5 1254.0Q990 1294 923.0 1314.0Q856 1334 783 1334Q649 1334 541.0 1266.0Q433 1198 370.0 1066.5Q307 935 307 744Q307 554 370.5 422.5Q434 291 542.0 223.5Q650 156 783 156Q856 156 923.0 176.5Q990 197 1045.5 236.5Q1101 276 1139.5 334.5Q1178 393 1194 469H1384Q1365 355 1311.5 265.0Q1258 175 1178.0 111.0Q1098 47 997.5 13.5Q897 -20 783 -20Z"/>
      <path transform="translate(571.79,336.00) scale(0.006348,-0.006348)" d="M180 0V1490H1088V1322H370V836H1039V668H370V168H1097V0Z"/>
    </g>
</svg>